{
  "accessors": [
    {
      "bufferView": 2,
      "componentType": 5126,
      "count": 65532,
      "max": [
        3.716996908187866,
        8.525399208068848,
        1.870460033416748
      ],
      "min": [
        -4.219728946685791,
        5.220879077911377,
        -2.1973350048065186
      ],
      "type": "VEC3"
    },
    {
      "bufferView": 2,
      "byteOffset": 786384,
      "componentType": 5126,
      "count": 65532,
      "max": [
        0.9999173283576965,
        0.9999732971191406,
        0.9999944567680359
      ],
      "min": [
        -1.0,
        -0.9999998211860657,
        -0.9999980926513672
      ],
      "type": "VEC3"
    },
    {
      "bufferView": 3,
      "componentType": 5126,
      "count": 65532,
      "max": [
        0.8274509906768799,
        0.729411780834198,
        0.6117647290229797,
        1.0
      ],
      "min": [
        0.05098039284348488,
        0.03921568766236305,
        0.007843137718737125,
        1.0
      ],
      "type": "VEC4"
    },
    {
      "bufferView": 1,
      "componentType": 5126,
      "count": 65532,
      "max": [
        0.999584972858429,
        0.9997389912605286
      ],
      "min": [
        4.099999932805076e-05,
        5.6000000768108293e-05
      ],
      "type": "VEC2"
    },
    {
      "bufferView": 0,
      "componentType": 5125,
      "count": 351741,
      "type": "SCALAR"
    },
    {
      "bufferView": 2,
      "byteOffset": 1572768,
      "componentType": 5126,
      "count": 65532,
      "max": [
        3.727381944656372,
        8.903525352478027,
        1.8599129915237427
      ],
      "min": [
        -4.217929840087891,
        5.223597049713135,
        -2.1971890926361084
      ],
      "type": "VEC3"
    },
    {
      "bufferView": 2,
      "byteOffset": 2359152,
      "componentType": 5126,
      "count": 65532,
      "max": [
        0.9999879002571106,
        0.9999974370002747,
        0.9999988079071045
      ],
      "min": [
        -0.9999982118606567,
        -0.9998677968978882,
        -0.9999948740005493
      ],
      "type": "VEC3"
    },
    {
      "bufferView": 3,
      "byteOffset": 1048512,
      "componentType": 5126,
      "count": 65532,
      "max": [
        0.843137264251709,
        0.729411780834198,
        0.6235294342041016,
        1.0
      ],
      "min": [
        0.0,
        0.0,
        0.0,
        1.0
      ],
      "type": "VEC4"
    },
    {
      "bufferView": 1,
      "byteOffset": 524256,
      "componentType": 5126,
      "count": 65532,
      "max": [
        0.9999880194664001,
        0.9936699867248535
      ],
      "min": [
        7.999999979801942e-06,
        5.6000000768108293e-05
      ],
      "type": "VEC2"
    },
    {
      "bufferView": 0,
      "byteOffset": 1406964,
      "componentType": 5125,
      "count": 325998,
      "type": "SCALAR"
    },
    {
      "bufferView": 2,
      "byteOffset": 3145536,
      "componentType": 5126,
      "count": 20925,
      "max": [
        1.4916340112686157,
        8.89724063873291,
        1.8360849618911743
      ],
      "min": [
        -4.182834148406982,
        5.500382900238037,
        -2.1071560382843018
      ],
      "type": "VEC3"
    },
    {
      "bufferView": 2,
      "byteOffset": 3396636,
      "componentType": 5126,
      "count": 20925,
      "max": [
        0.9954584240913391,
        0.9997912049293518,
        0.9999752044677734
      ],
      "min": [
        -0.9983102679252625,
        -0.999961793422699,
        -0.9999887347221375
      ],
      "type": "VEC3"
    },
    {
      "bufferView": 3,
      "byteOffset": 2097024,
      "componentType": 5126,
      "count": 20925,
      "max": [
        0.843137264251709,
        0.729411780834198,
        0.6039215922355652,
        1.0
      ],
      "min": [
        0.2235294133424759,
        0.14509804546833038,
        0.05882352963089943,
        1.0
      ],
      "type": "VEC4"
    },
    {
      "bufferView": 1,
      "byteOffset": 1048512,
      "componentType": 5126,
      "count": 20925,
      "max": [
        0.9964349865913391,
        0.9444599747657776
      ],
      "min": [
        0.0021869998890906572,
        0.005799000151455402
      ],
      "type": "VEC2"
    },
    {
      "bufferView": 0,
      "byteOffset": 2710956,
      "componentType": 5125,
      "count": 72261,
      "type": "SCALAR"
    }
  ],
  "asset": {
    "extras": {
      "author": "Geoffrey Marchal (https://sketchfab.com/geoffreymarchal)",
      "license": "CC-BY-NC-4.0 (http://creativecommons.org/licenses/by-nc/4.0/)",
      "source": "https://sketchfab.com/3d-models/the-emperor-augustus-d958f8c6de0c4fd8bc5226b3d18abf2d",
      "title": "The Emperor Augustus"
    },
    "generator": "Sketchfab-12.25.0",
    "version": "2.0"
  },
  "bufferViews": [
    {
      "buffer": 0,
      "byteLength": 3000000,
      "name": "floatBufferViews",
      "target": 34963
    },
    {
      "buffer": 0,
      "byteLength": 1215912,
      "byteOffset": 3000000,
      "byteStride": 8,
      "name": "floatBufferViews",
      "target": 34962
    },
    {
      "buffer": 0,
      "byteLength": 3647736,
      "byteOffset": 4215912,
      "byteStride": 12,
      "name": "floatBufferViews",
      "target": 34962
    },
    {
      "buffer": 0,
      "byteLength": 2431824,
      "byteOffset": 7863648,
      "byteStride": 16,
      "name": "floatBufferViews",
      "target": 34962
    }
  ],
  "buffers": [
    {
      "byteLength": 10295472,
      "uri": "scene.bin"
    }
  ],
  "extensionsRequired": [
    "KHR_materials_pbrSpecularGlossiness"
  ],
  "extensionsUsed": [
    "KHR_materials_pbrSpecularGlossiness"
  ],
  "images": [
    {
      "uri": "textures/EmperorAugustus_diffuse.jpeg"
    },
    {
      "uri": "textures/EmperorAugustus_occlusion.png"
    }
  ],
  "materials": [
    {
      "doubleSided": true,
      "emissiveFactor": [
        0.6000000000000001,
        0.6000000000000001,
        0.6000000000000001
      ],
      "emissiveTexture": {
        "index": 0
      },
      "extensions": {
        "KHR_materials_pbrSpecularGlossiness": {
          "diffuseFactor": [
            1.0,
            1.0,
            1.0,
            1.0
          ],
          "diffuseTexture": {
            "index": 0
          },
          "glossinessFactor": 0.0,
          "specularFactor": [
            1.0,
            1.0,
            1.0
          ],
          "specularGlossinessTexture": {
            "index": 0
          }
        }
      },
      "name": "EmperorAugustus",
      "occlusionTexture": {
        "index": 1
      }
    }
  ],
  "meshes": [
    {
      "name": "Object_0",
      "primitives": [
        {
          "attributes": {
            "COLOR_0": 2,
            "NORMAL": 1,
            "POSITION": 0,
            "TEXCOORD_0": 3
          },
          "indices": 4,
          "material": 0,
          "mode": 4
        }
      ]
    },
    {
      "name": "Object_1",
      "primitives": [
        {
          "attributes": {
            "COLOR_0": 7,
            "NORMAL": 6,
            "POSITION": 5,
            "TEXCOORD_0": 8
          },
          "indices": 9,
          "material": 0,
          "mode": 4
        }
      ]
    },
    {
      "name": "Object_2",
      "primitives": [
        {
          "attributes": {
            "COLOR_0": 12,
            "NORMAL": 11,
            "POSITION": 10,
            "TEXCOORD_0": 13
          },
          "indices": 14,
          "material": 0,
          "mode": 4
        }
      ]
    }
  ],
  "nodes": [
    {
      "children": [
        1
      ],
      "matrix": [
        0.019400248304009438,
        -0.9998042583465576,
        0.003878764808177726,
        0.0,
        0.9981500506401062,
        0.019591439515352235,
        0.05755585804581643,
        0.0,
        -0.0576205849647522,
        0.002754991175606625,
        0.9983347654342651,
        0.0,
        -7.299956321716309,
        -0.5474776625633223,
        -7.304550647735596,
        1.0
      ],
      "name": "Sketchfab_model"
    },
    {
      "children": [
        2,
        3,
        4
      ],
      "name": "EmperorAugustus.obj.cleaner.materialmerger.gles"
    },
    {
      "mesh": 0,
      "name": "Object_2"
    },
    {
      "mesh": 1,
      "name": "Object_3"
    },
    {
      "mesh": 2,
      "name": "Object_4"
    }
  ],
  "samplers": [
    {
      "magFilter": 9729,
      "minFilter": 9987,
      "wrapS": 10497,
      "wrapT": 10497
    }
  ],
  "scene": 0,
  "scenes": [
    {
      "name": "Sketchfab_Scene",
      "nodes": [
        0
      ]
    }
  ],
  "textures": [
    {
      "sampler": 0,
      "source": 0
    },
    {
      "sampler": 0,
      "source": 1
    }
  ]
}
